<?xml version="1.0" encoding="UTF-8"?>
<svg id="Layer_1" data-name="Layer 1" xmlns="http://www.w3.org/2000/svg" xmlns:xlink="http://www.w3.org/1999/xlink" viewBox="0 0 62.26347 79.31447">
  <defs>
    <mask id="mask" x="20.10258" y="-.05923" width="17.74321" height="29.94911" maskUnits="userSpaceOnUse">
      <g id="path-5-outside-1_34_118" data-name="path-5-outside-1 34 118">
        <rect x="20.10258" y="-.05923" width="17.74321" height="29.94911" style="fill: #fff; stroke-width: 0px;"/>
        <path d="M35.35674,1.35893c-1.0562-.45131-2.27834.03908-2.72966,1.09531l-10.97644,25.68893c.53128.28163,1.21922.5317,1.98712.5317.73218,0,1.60445-.07502,2.3789-.16362l10.43539-24.42267c.45132-1.05623-.03906-2.27834-1.09532-2.72966Z" style="fill: #010101; fill-rule: evenodd; stroke-width: 0px;"/>
      </g>
    </mask>
  </defs>
  <path d="M44.35803,26.05507c0-3.86379-9.79657-6.99606-21.88131-6.99606S.59541,22.19127.59541,26.05507c0,.00994.00007.01989.0002.02983l-.0002-.00006v48.13888s.5954,4.49534,22.17901,4.49534,21.5836-4.49534,21.5836-4.49534v-11.52118s.02501-.63709.26793-1.04197c.22101-.36856.44203-.41262.79666-.48347h.00006c.07532-.01548.15665-.03156.24525-.0524.17267-.04049.4147.05061.7804.18815.7061.26555,1.87346.70496,3.89356.70496,4.34649-.35725,6.59988-2.80605,7.97849-4.6442,3.30452-4.40603,4.34768-11.09338,2.29233-17.44551-.63887-1.97402-2.08393-4.87022-3.75108-6.04341-.10699-.07526-.21066-.14897-.31182-.2209l-.0003-.00024c-1.47525-1.04888-2.42266-1.72246-5.46336-1.47578-2.58164.20941-5.47777,2.64957-5.47777,2.64957,0,0-.42512.17862-.86334-.14885s-.38702-.8038-.38702-.8038v-7.82964ZM51.47318,36.23657c-2.92316,0-7.11515,4.07856-7.11515,4.07856v15.06387s2.17325,2.64957,4.76328,2.47095,3.89993-1.28013,5.15029-2.67934c1.57289-1.76015,2.11085-3.14275,2.73888-5.41823,1.10705-4.01068.17934-7.47239-.8038-10.03265s-2.53049-3.48315-4.73351-3.48315Z" style="fill: #fff; fill-rule: evenodd; stroke-width: 0px;"/>
  <path d="M.59561,26.0849l-.12898.58124.73415.1629-.00981-.75194-.59536.0078ZM.59541,26.08484l.12898-.5813-.72439-.1607v.742h.59541ZM.59541,74.22372h-.59541v.0393l.00515.0387.59025-.078ZM44.35803,62.70254l-.59493-.02322-.00048.01132v.01191h.59541ZM44.62596,61.66057l-.51056-.30604h0l.51056.30604ZM45.42262,61.1771l-.08419-.58946-.01643.00238-.01631.00298.11694.5841ZM45.42268,61.1771l.08425.58946.01643-.00238.01631-.00357-.117-.5835ZM45.66793,61.1247l.13635.57933h0l-.13635-.57933ZM46.44833,61.31285l.20971-.55731h0l-.20971.55731ZM50.3419,62.01782v.59541h.02441l.02435-.00179-.04876-.59362ZM58.32039,57.37362l-.47633-.35725h0l.47633.35725ZM60.61272,39.92811l.56624-.18327h0l-.56624.18327ZM56.86163,33.8847l.34266-.48692h0l-.34266.48692ZM56.54982,33.66381l.34504-.48526-.00178-.00131-.00179-.00125-.34147.48782ZM56.54952,33.66357l-.34498.48526.00179.00131.00178.00125.34141-.48782ZM51.08616,32.18779l.04817.59344h0l-.04817-.59344ZM45.60839,34.83736l.23066.54891.0836-.03513.06936-.05847-.38362-.45531ZM44.35803,33.8847l.59202.06365.00339-.03173v-.03191h-.59541ZM44.35803,40.31513l-.41518-.42673-.18023.17529v.25144h.59541ZM44.35803,55.379h-.59541v.21298l.13504.16463.46037-.37761ZM49.12131,57.84995l-.04096-.59398h0l.04096.59398ZM54.2716,55.1706l-.444-.39672h0l.444.39672ZM57.01049,49.75237l-.57398-.15844h0l.57398.15844ZM56.20668,39.71972l-.55582.21346h0l.55582-.21346ZM22.47672,19.65441c5.99822,0,11.40448.77814,15.29107,2.02082,1.94669.62238,3.47886,1.35092,4.51166,2.13163,1.0425.78808,1.48316,1.55378,1.48316,2.24821h1.19082c0-1.2375-.78392-2.31222-1.95592-3.19818-1.18171-.89329-2.85398-1.67227-4.86706-2.31591-4.03289-1.28942-9.56722-2.07739-15.65374-2.07739v1.19082ZM1.19082,26.05507c0-.69443.44063-1.46012,1.48318-2.24821,1.03279-.7807,2.56493-1.50924,4.51165-2.13163,3.8866-1.24268,9.29286-2.02082,15.29108-2.02082v-1.19082c-6.08652,0-11.62085.78797-15.65374,2.07739-2.01305.64364-3.68535,1.42261-4.86707,2.31591-1.17197.88597-1.95591,1.96068-1.95591,3.19818h1.19082ZM1.19096,26.0771c-.0001-.00732-.00014-.01471-.00014-.02203H0c0,.0125.00008.02507.00025.03757l1.19072-.01554ZM.46643,26.66613h.00019l.25796-1.16254-.0002-.00006-.25796,1.1626ZM1.19082,74.22372V26.08484H0v48.13888h1.19082ZM22.77442,78.12365c-10.76519,0-16.22152-1.12294-18.96473-2.206-1.3668-.53944-2.03231-1.05863-2.34859-1.39742-.15736-.16909-.22948-.29413-.26022-.35903-.01553-.03274-.02123-.0512-.02205-.05418-.00043-.00119.00032.00119.00166.00714.00067.00357.00148.00774.00237.0125.00044.00298.00091.00595.00138.00893.00023.00119.00047.00297.00071.00476.00012.0006.0003.00238.00036.00238.00018.00119.00036.00297-.5899.08097-.59025.078-.59007.07978-.58988.08097.00007.0006.00026.00179.0004.00298.00028.00178.00057.00357.00089.00595.00064.00416.00135.00893.00217.01369.00162.00953.00362.01965.00607.03156.00491.02322.01164.0512.02084.08276.01843.06251.04661.14052.08951.23102.08613.181.22915.40666.46485.65971.46985.50371,1.30217,1.10865,2.78217,1.69275,2.9504,1.16462,8.58358,2.28935,19.40199,2.28935v-1.19082ZM44.35803,74.22372c-.59541,0-.59541-.00119-.59541-.00298v-.00238c.00006-.00179.00006-.00358.00012-.00536.00006-.00297.00012-.00595.00024-.00893.00018-.00536.00048-.00953.00077-.0137.00054-.00714.00113-.01012.00107-.01012,0,0-.00244.01489-.01215.04346-.01905.05538-.06931.17088-.19678.33046-.25656.32033-.83685.83119-2.12478,1.36765-2.58765,1.07769-7.88829,2.20182-18.65669,2.20182v1.19082c10.8152,0,16.30637-1.12354,19.11462-2.29352,1.40999-.58707,2.17872-1.20035,2.59664-1.72311.20976-.26198.32813-.49776.39339-.6877.03245-.09467.05109-.17624.06163-.24173.00524-.03275.00845-.06133.0103-.08574.00095-.01191.00155-.02322.00191-.03275.00024-.00536.00036-.00952.00041-.01429.00006-.00178.00006-.00416.00012-.00595v-.00297c0-.00179,0-.00298-.59541-.00298ZM43.76262,62.70254v11.52118h1.19082v-11.52118h-1.19082ZM44.1154,61.35453c-.17809.29651-.26031.64305-.30104.87644-.02162.12385-.03418.23221-.0415.31081-.00363.03929-.00601.07145-.0075.09467-.00072.01191-.00125.02143-.00161.02858-.00018.00358-.00036.00655-.00048.00893,0,.00119-.00006.00238-.00012.00297,0,.0006,0,.00119-.00006.00119v.0006h0q0,.0006.59493.02382t.59493.02382h0q0,.0006-.00006.0006v.0006s.00006-.0006.00012-.00179c.00012-.00238.00036-.00714.00077-.01369.00084-.0131.00232-.03335.00476-.06014.00506-.05418.01387-.1304.02888-.21613.03251-.18636.08425-.36082.14909-.46918l-1.02113-.61208ZM45.30568,60.593c-.15677.03155-.38952.07383-.60565.18577-.24489.12682-.43012.31795-.58463.57576l1.02113.61208c.06651-.11075.10223-.12563.11182-.13099.03829-.01965.09336-.03513.29121-.07501l-.23388-1.1676ZM45.33849,60.58764h-.00006l.16838,1.17891h.00012l-.16844-1.17891ZM45.53158,60.54537c-.07764.01786-.14975.03275-.2259.04763l.234,1.1676c.07448-.01489.16505-.03275.2646-.05657l-.2727-1.15867ZM46.65804,60.75555c-.17344-.06549-.35481-.13397-.51545-.17803-.15421-.04228-.37636-.08752-.61101-.03215l.2727,1.15867c-.06198.01489-.07681-.00536.02465.02203.09497.0262.21745.07145.4097.14409l.41941-1.11461ZM50.3419,61.42241c-1.91823,0-3.00902-.41321-3.68386-.66686l-.41941,1.11461c.73741.27746,1.98129.74307,4.10327.74307v-1.19082ZM57.84406,57.01637c-1.33533,1.78045-3.45218,4.07141-7.55093,4.40782l.09752,1.18724c4.59424-.37808,6.98416-2.98479,8.40606-4.88057l-.95266-.71449ZM60.04648,40.11138c2.00296,6.19244.97112,12.67324-2.20242,16.90499l.95266.71449c3.43551-4.58031,4.48939-11.4742,2.38224-17.98602l-1.13247.36653ZM56.51897,34.37163c.7292.51313,1.45518,1.44304,2.08911,2.53365.62715,1.07894,1.13116,2.25737,1.43839,3.2061l1.13247-.36653c-.33164-1.02529-.8693-2.28197-1.54152-3.43795-.66495-1.14426-1.49519-2.2491-2.43314-2.90911l-.68532.97385ZM56.20478,34.14901c.10104.07186.20583.14635.3142.22262l.68532-.97385c-.10562-.07431-.20816-.14719-.30944-.21923l-.69008.97046ZM56.20811,34.15139l.00024.00018.68293-.97558-.0003-.00018-.68288.97558ZM51.13433,32.78123c1.47388-.11956,2.38301-.01095,3.0813.22316.70485.23632,1.24173.61327,1.98891,1.14443l.69002-.97052c-.72807-.51765-1.40255-1.00196-2.30036-1.30299-.90443-.30319-1.98939-.40809-3.55621-.28097l.09634,1.18689ZM45.60839,34.83736q.38362.45531.3835.45543c0,.00006-.00006.00006-.00006.00012q-.00006,0,0-.00006c.00012-.00012.00042-.00036.00089-.00072.00089-.00077.0025-.00214.00482-.00405.00452-.00375.01179-.00982.02167-.01792.01977-.01619.04995-.04072.08973-.07246.07967-.06341.19762-.15552.34772-.26722.30068-.22375.72777-.52426,1.23172-.8306,1.02613-.62363,2.29763-1.22547,3.44593-1.31866l-.09634-1.18689c-1.43333.11628-2.90071.83923-3.96811,1.48799-.54278.32992-1.00107.65245-1.32407.89282-.16171.12033-.2902.22054-.37904.29133-.04442.03543-.07901.06353-.10295.08312-.01197.00983-.02126.01757-.02781.02298-.00327.00274-.00583.00488-.00774.00649-.00096.00077-.00173.00143-.00232.00191-.0003.00024-.00054.00048-.00072.00065-.00012.00006-.00024.00018-.0003.00024q-.00012.00006.38344.45549ZM44.38863,35.16549c.34403.25704.69663.3217.96617.31551.13194-.00304.24287-.0228.3242-.04311.04091-.01018.07526-.02072.10199-.02977.0134-.00459.02501-.00881.03471-.0125.00482-.00185.00923-.00357.0131-.00512.00196-.00077.00375-.00155.00548-.00226.00083-.00036.00167-.00065.00244-.00101.00041-.00018.00083-.0003.00119-.00048.00018-.00006.00048-.00018.0006-.00024q.00024-.00012-.23013-.54915-.23066-.54891-.23013-.54915c.00012-.00006.00036-.00018.00053-.00024.00036-.00012.00072-.0003.00107-.00042.00072-.0003.00137-.0006.00202-.00083.00125-.00054.0025-.00101.00363-.00149.00226-.00089.00417-.00167.00577-.00226.00327-.00125.0053-.00197.00625-.00226.00179-.00065-.00053.00024-.00631.00167-.01209.00303-.03483.00744-.06395.0081-.05252.00125-.13159-.00851-.22584-.07895l-.71283.95396ZM44.35803,33.8847q-.59202-.06365-.59207-.06311c0,.00012,0,.00042-.00006.0006,0,.00041-.00006.00083-.00012.00119-.00006.00084-.00018.00173-.00024.00262-.00018.00179-.00036.00369-.00054.00572-.00041.00411-.00077.00869-.00119.01381-.00077.01018-.00149.02245-.00209.03656-.00113.02816-.00149.06419.00024.10658.00345.08419.01554.19738.0493.32623.06877.2621.22905.59029.57737.8506l.71283-.95396c-.08991-.06716-.12313-.14088-.13831-.19881-.00822-.0312-.01072-.05752-.01137-.07294-.0003-.00732-.00012-.01107-.00018-.01024,0,.00048-.00006.00214-.0003.00524-.00012.00149-.0003.00339-.00048.00565-.00012.00113-.00024.00238-.00036.00369-.00006.00065-.00012.00131-.00018.00202-.00006.00036-.00012.00072-.00012.00113-.00006.00018-.00006.00041-.00006.00053q-.00006.0003-.59207-.06311ZM43.76262,26.05507v7.82964h1.19082v-7.82964h-1.19082ZM44.35803,40.31513q.41518.42679.41512.42685h0l.00024-.00024c.00036-.0003.00089-.00089.00173-.00166.00161-.00155.00423-.00411.00786-.00756.0072-.00691.01828-.01756.0331-.03167.02971-.02822.07431-.07032.13254-.12426.1164-.10789.28705-.26311.50133-.44989.42911-.37404,1.02988-.87168,1.71782-1.36796.68972-.49758,1.45578-.98558,2.21618-1.34717.76826-.36534,1.48537-.57957,2.08923-.57957v-1.19082c-.85769,0-1.76081.29556-2.60063.69496-.8478.40315-1.67781.93479-2.40147,1.45685-.72545.52336-1.35539,1.04542-1.80361,1.43607-.22441.19559-.40411.35903-.52831.47413-.06216.05758-.11045.10319-.14361.13468-.01655.01578-.02935.02804-.03822.0365-.00441.00429-.00786.00762-.01024.00994-.00125.00119-.00221.00209-.00292.0028-.00036.00036-.00065.0006-.00084.00084-.00012.00012-.00024.00024-.00029.0003q-.00012.00006.415.42691ZM44.95344,55.379v-15.06387h-1.19082v15.06387h1.19082ZM49.08034,57.25597c-1.0868.07496-2.13544-.44608-2.95829-1.05352-.40351-.29788-.73319-.6022-.96177-.83209-.1139-.11455-.20172-.20958-.26002-.27478-.02912-.03257-.05079-.05757-.0646-.07371-.0069-.0081-.01185-.01393-.0147-.01739-.00149-.00173-.00238-.00286-.00286-.00339-.00018-.0003-.0003-.00036-.00024-.0003l.00018.00018c.00006.00006.00012.00018.00012.00018q.00012.00012-.46013.37785-.46037.37761-.46013.37791l.00036.00036c.00018.00029.00041.00059.00071.00095.0006.00065.00131.00155.00214.00256.00167.00202.00387.00471.00661.00798.00548.00655.0131.01554.02274.02679.01929.02263.04686.05436.08217.0939.07074.07901.17291.18952.30324.32057.25984.26133.6353.60827,1.09889.95045.91127.6727,2.24428,1.38719,3.74751,1.28347l-.08193-1.18796ZM53.82761,54.77388c-.61024.68294-1.20148,1.25417-1.92955,1.68025-.7208.42185-1.60528.71824-2.81772.80184l.08193,1.18796c1.3776-.09497,2.44308-.4387,3.33733-.96206.88698-.51914,1.57587-1.19826,2.21599-1.91454l-.88799-.79345ZM56.43651,49.59394c-.61571,2.23082-1.12145,3.51548-2.6089,5.17995l.88799.79345c1.65834-1.85577,2.22844-3.33644,2.86887-5.65651l-1.14795-.31688ZM55.65087,39.93318c.96397,2.51037,1.84339,5.8287.78564,9.66076l1.14795.31688c1.15628-4.1893.18035-7.79433-.82196-10.40455l-1.11163.42691ZM51.47318,36.83198c1.01738,0,1.82463.21221,2.48226.67353.66019.46311,1.23214,1.22119,1.69543,2.42766l1.11163-.42691c-.51985-1.35378-1.21315-2.33722-2.12317-2.97562-.91259-.64025-1.98051-.88948-3.16615-.88948v1.19082Z" style="fill: #010101; stroke-width: 0px;"/>
  <ellipse cx="22.47672" cy="26.05507" rx="21.88131" ry="6.99606" style="fill: #bfbebe; stroke: #010101; stroke-width: 1.19082px;"/>
  <ellipse cx="22.47672" cy="29.83592" rx="17.77298" ry="4.28695" style="fill: #774724; stroke: #010101; stroke-width: 1.19082px;"/>
  <path d="M35.35674,1.35893c-1.0562-.45131-2.27834.03908-2.72966,1.09531l-10.97644,25.68893c.53128.28163,1.21922.5317,1.98712.5317.73218,0,1.60445-.07502,2.3789-.16362l10.43539-24.42267c.45132-1.05623-.03906-2.27834-1.09532-2.72966Z" style="fill: #cf9667; fill-rule: evenodd; stroke-width: 0px;"/>
  <g style="mask: url(#mask);">
    <path d="M32.62709,2.45424l-1.09502-.46789h0l1.09502.46789ZM35.35674,1.35893l.46793-1.09505h0l-.46793,1.09505ZM21.65065,28.14317l-1.09502-.46787-.4303,1.00708.9676.51294.55772-1.05215ZM26.01667,28.51125l.13528,1.18314.68782-.07865.27198-.63655-1.09508-.46793ZM36.45206,4.08858l-1.09502-.46789h0l1.09502.46789ZM33.72216,2.92213c.19291-.45146.71527-.66106,1.1667-.46816l.93581-2.19009c-1.66102-.70972-3.58288.06145-4.29261,1.72247l2.1901.93579ZM22.74573,28.61104L33.72216,2.92213l-2.1901-.93579-10.97644,25.68895,2.1901.93575ZM23.63777,27.48405c-.51247,0-1.00642-.1688-1.42934-.39303l-1.1155,2.1043c.63959.33903,1.52151.67037,2.54484.67037v-2.38164ZM25.88139,27.32817c-.75909.08681-1.57891.15588-2.24362.15588v2.38164c.79963,0,1.72437-.08097,2.51418-.1713l-.27055-2.36622ZM35.35704,3.62069l-10.43539,24.42269,2.1901.9358,10.43539-24.4227-2.19009-.93579ZM34.88887,2.45397c.45144.1929.66109.71525.46817,1.16672l2.19009.93579c.70973-1.66101-.06145-3.58288-1.72246-4.2926l-.93581,2.19009Z" style="fill: #010101; stroke-width: 0px;"/>
  </g>
  <path d="M22.47672,33.05113c12.08474,0,21.88131-3.13227,21.88131-6.99606v7.82964s-.0512.47633.38702.8038.86334.14885.86334.14885c0,0,2.89613-2.44017,5.47777-2.64957,3.0407-.24668,3.98812.42691,5.46336,1.47578l.0003.00024c.10116.07193.20482.14564.31182.2209,1.66715,1.17319,3.11221,4.06939,3.75108,6.04341,2.05536,6.35213,1.0122,13.03947-2.29233,17.44551-1.37861,1.83815-3.632,4.28695-7.97849,4.6442-2.02011,0-3.18747-.43941-3.89356-.70496-.3657-.13754-.60773-.22864-.7804-.18815-.08866.02084-.16999.03692-.24531.0524-.35463.07085-.57564.11492-.79666.48347-.24293.40488-.26793,1.04197-.26793,1.04197v11.52118s0,4.49534-21.5836,4.49534S.59541,74.22372.59541,74.22372V26.08484s.00007,0,.0002.00006c.05023,3.8501,9.82752,6.96623,21.88111,6.96623ZM44.35803,41.50595s4.19198-4.67397,7.11515-4.67397c2.20302,0,3.75037.32748,4.73351,2.88774s1.91085,6.02198.8038,10.03265c-.62804,2.27548-1.16599,3.65808-2.73888,5.41823-1.25036,1.39921-2.56026,2.50072-5.15029,2.67934s-4.76328-2.47095-4.76328-2.47095v-13.87305Z" style="fill: #fff; fill-rule: evenodd; stroke: #010101; stroke-width: 1.19082px;"/>
</svg>