<?xml version="1.0" encoding="UTF-8"?>
<svg id="Layer_1" data-name="Layer 1" xmlns="http://www.w3.org/2000/svg" xmlns:xlink="http://www.w3.org/1999/xlink" viewBox="0 0 1806.1273 1081.00871">
  <defs>
    <clipPath id="clippath">
      <rect x="205.96687" y="510.3641" width="364.37686" height="557.97489" style="fill: none; stroke-width: 0px;"/>
    </clipPath>
    <clipPath id="clippath-1">
      <rect x="537.61455" y="323.09717" width="502.33649" height="745.24182" style="fill: none; stroke-width: 0px;"/>
    </clipPath>
    <clipPath id="clippath-2">
      <rect x="935.36937" y="331.8927" width="383.474" height="736.44629" style="fill: none; stroke-width: 0px;"/>
    </clipPath>
    <clipPath id="clippath-3">
      <rect x="1335.0565" y="556.42838" width="279.46497" height="511.91061" style="fill: none; stroke-width: 0px;"/>
    </clipPath>
  </defs>
  <g style="clip-path: url(#clippath);">
    <path d="m274.76787,1067.33899l294.57587-1.30489c-88.13519-53.65165-137.05038-153.68576-125.25989-256.19088,5.32321-46.27899,23.4549-91.59299,20.25562-138.23441-3.2807-47.82669-27.58762-89.2789-49.694-131.87772-11.11249-21.4137-31.32611-36.44855-44.9931-23.6499-8.00378,7.49512-5.5051,19.7525-2.20651,30.59363,11.3114,37.17542,20.37781,74.7934,2.34482,108.48471-18.30371,34.19678-59.79071,49.9173-91.04062,73.8353-49.18478,37.64499-71.7565,99.12729-71.78317,161.27899-.02802,65.3772,24.08447,128.45386,67.80099,177.06516Z" style="fill: #ffcc4d; opacity: .8933; stroke-width: 0px;"/>
  </g>
  <g style="clip-path: url(#clippath-1);">
    <path d="m538.61455,1073.12851l419.36603,6.56404c114.38599-127.72756,106.55994-337.87556-17.0191-454.30586-72.73322-68.52579-184.54492-109.7861-180.60663-217.32889,1.42474-38.90192,3.05731-83.26801-26.8291-83.95502-15.24597-.3504-25.08008,15.66028-32.04999,31.57672-15.99091,36.51617-26.08411,69.13617-24.87189,108.5293,2.1236,69.00867,40.50031,134.78879,63.93707,201.27179,25.245,71.6123,25.90332,151.1657.43384,222.812-34.42389,96.83497-110.93683,166.62541-202.36023,184.83592Z" style="fill: #ffcc4d; opacity: .8933; stroke-width: 0px;"/>
  </g>
  <g style="clip-path: url(#clippath-2);">
    <path d="m1196.55858,338.27368c9.97192-4.19641,21.28101-7.73297,30.99194-3.4079,24.83704,11.06268,4.80408,38.64813-20.43994,60.79791-55.25305,48.48041-32.01099,120.78326-7.97803,184.11661,59.97803,158.05179,100.18506,322.31488,118.71106,491.11736h-376.14923c-8.89392-109.94107-6.64362-220.30817,6.72717-329.93627,19.72699-161.74081,76.35297-330.39743,248.13702-402.68771Z" style="fill: #ff9500; opacity: .8933; stroke-width: 0px;"/>
  </g>
  <g style="clip-path: url(#clippath-3);">
    <path d="m1336.4586,1071.9507l277.06299-1.89557c-6.53101-59.02577-14.88306-118.11235-24.98608-176.63294-4.99792-28.95041-10.20496-57.79581-15.50598-86.7606-7.89697-43.1582-18.85498-83.78549-32.28491-121.72009-22.66602-64.0228-79.8551-97.42599-124.34204-117.09512-32.37695-14.31458-64.50903-16.9649-76.97498,12.05042-13.81201,32.1474,22.18396,56.5401,48.67993,81.99289,42.08105,40.42542,51.61609,102.9072,33.08508,158.83382-12.86707,38.83389-38.32104,71.84209-56.06104,108.63699-21.39099,44.36476-31.25305,93.40541-28.67297,142.59021Z" style="fill: #ff9500; opacity: .8933; stroke-width: 0px;"/>
  </g>
</svg>