<?xml version="1.0" encoding="UTF-8"?>
<svg id="Layer_1" data-name="Layer 1" xmlns="http://www.w3.org/2000/svg" xmlns:xlink="http://www.w3.org/1999/xlink" viewBox="0 0 1806.1273 1081.00871">
  <defs>
    <clipPath id="clippath">
      <rect x="235.50615" y="126.98792" width="704.49121" height="941.35107" style="fill: none; stroke-width: 0px;"/>
    </clipPath>
    <clipPath id="clippath-1">
      <rect x="382.88057" y="172.05371" width="419.6301" height="896.28528" style="fill: none; stroke-width: 0px;"/>
    </clipPath>
    <clipPath id="clippath-2">
      <rect x="1038.93956" y="427.55469" width="430.50293" height="640.7843" style="fill: none; stroke-width: 0px;"/>
    </clipPath>
    <clipPath id="clippath-3">
      <rect x="1349.26561" y="333.42279" width="456.86169" height="734.9162" style="fill: none; stroke-width: 0px;"/>
    </clipPath>
    <clipPath id="clippath-4">
      <rect x="1419.8026" y="610.26089" width="316.6886" height="458.07809" style="fill: none; stroke-width: 0px;"/>
    </clipPath>
  </defs>
  <g style="clip-path: url(#clippath);">
    <path d="m768.13817,139.27838c22.93579,21.29462,12.64069,57.06952-5.7099,85.51062-90.0174,139.51569-260.15942,237.43298-191.47589,384.22058,33.64459,71.90372,122.10889,102.45621,191.98315,144.8114,113.45721,68.77341,181.07001,194.62111,175.77173,327.18773l-631.3609-5.13919c-94.3009-194.77772-94.461-421.96284-.4346-616.87324,79.6637-165.13739,223.32541-294.15131,402.8588-328.25647,20.62683-3.9184,43.16699-5.57434,58.36761,8.53857Z" style="fill: #ff4747; opacity: .8933; stroke-width: 0px;"/>
  </g>
  <g style="clip-path: url(#clippath-1);">
    <path d="m578.91936,429.60046c39.45721-43.81036,83.64478-90.58405,76.03979-148.5929-5.57227-42.50391-25.42706-92.4848,12.74408-106.10248,20.2348-7.21881,39.75732,7.83862,54.19513,24.99829,91.99902,109.34308,97.01318,263.89709,51.84363,400.55121-25.83392,78.15671-63.78674,152.20599-70.21545,232.7307-7.04688,88.2679,23.92896,175.66164,88.00305,238.5816h-376.14914c-44.22519-129.1775-41.79059-269.7823,6.72711-397.40959,34.72702-91.35022,91.44778-172.18152,156.8118-244.75684Z" style="fill: #ff9500; opacity: .8933; stroke-width: 0px;"/>
  </g>
  <g style="clip-path: url(#clippath-2);">
    <path d="m1274.95457,434.12311c11.90198-12.31171,31.80896-2.68481,43.86096,14.0238,71.31006,98.86676,4.56006,225.47998,1.61902,344.44287-2.77698,112.29041,53.35901,217.85973,148.00806,278.34441l-357.39709-1.36977c-87.71094-87.48991-95.21399-227.02924-17.29297-323.34183,75.61096-93.4577,224.54407-156.84012,182.76099-273.92279-4.77197-13.37323-11.11401-28.29242-1.55896-38.1767Z" style="fill: #ffcc4d; opacity: .8933; stroke-width: 0px;"/>
  </g>
  <g style="clip-path: url(#clippath-3);">
    <path d="m1804.77159,1067.41557l-454.50598,1.95173c7.85901-80.08133,20.172-159.62781,36.8429-238.34781,15.36206-72.5403,35.49304-148.00398,85.55408-202.14149,57.51501-62.19949,146.36194-113.65723,116.80896-192.88843-13.13098-35.20428-44.94897-72.73145-15.729-95.38055,15.40601-11.94122,36.75305-5.02991,53.05408,7.46381,44.354,33.995,59.54089,91.38245,61.54089,147.58649,1.91504,53.84381-6.8689,107.96628,1.22607,161.29999,11.49194,75.72269,55.21899,141.28091,82.50098,212.6022,24.12805,63.07249,35.25305,130.37231,32.70703,197.85407Z" style="fill: #ff4747; opacity: .8933; stroke-width: 0px;"/>
  </g>
  <g style="clip-path: url(#clippath-4);">
    <path d="m1420.8026,1077.56645l286.33093-7.39283c-6.422-91.11028-15.96094-177.20003-33.70398-266.78363-11.35498-57.33121-16.55103-120.48151,30.83704-138.86389,10.39697-4.03342,22.97302-5.22519,28.48499-15.04071,10.672-19.00549-11.297-42.05978-40.58398-37.68369-22.09106,3.30069-40.26697,17.6774-55.63599,33.88498-68.43604,72.17041-94.45105,171.08971-131.224,263.07561-23.40405,58.54211-51.66003,114.98851-84.505,168.80416Z" style="fill: #ffcc4d; opacity: .8933; stroke-width: 0px;"/>
  </g>
</svg>