<?xml version="1.0" encoding="UTF-8"?>
<svg id="Layer_1" data-name="Layer 1" xmlns="http://www.w3.org/2000/svg" xmlns:xlink="http://www.w3.org/1999/xlink" viewBox="0 0 1806.1273 1081.00871">
  <defs>
    <clipPath id="clippath">
      <rect x="522.58995" width="603.01099" height="1068.33899" style="fill: none; stroke-width: 0px;"/>
    </clipPath>
    <clipPath id="clippath-1">
      <rect x="977.79259" y="258.38507" width="696.14148" height="809.95392" style="fill: none; stroke-width: 0px;"/>
    </clipPath>
    <clipPath id="clippath-2">
      <rect y="320.02716" width="459.0128" height="748.31183" style="fill: none; stroke-width: 0px;"/>
    </clipPath>
  </defs>
  <g style="clip-path: url(#clippath);">
    <path d="m720.81548,552.46991c100.14526-132.17212,246.62103-252.34149,206.96796-402.9505-24.06506-91.40442,2.82812-172.21143,56.20813-142.11841,10.06702,5.67505,15.68298,16.24902,20.92395,26.53796,166.68005,327.19843,158.85901,715.02982-20.92395,1035.21589h-460.40161c14.89679-190.80388,81.69031-364.20128,197.22552-516.68495Z" style="fill: #ff4747; opacity: .8933; stroke-width: 0px;"/>
  </g>
  <g style="clip-path: url(#clippath-1);">
    <path d="m1264.9016,272.40839c-19.82703,25.34979,5.66199,56.94629,32.60193,81.47351,84.39404,76.8374,120.07703,169.203,69.62805,256.34769-41.55298,71.7775-136.89099,100.18469-211.823,142.94571-115.98499,66.1882-184.49304,193.9329-175.77197,327.18774l631.36096-5.1392c110.46594-227.74555,71.04602-499.77465-99.43298-686.87886-51.62305-56.65759-114.56799-103.07587-188.19507-124.47516-21.20496-6.16302-45.30798-8.15912-58.36792,8.53857Z" style="fill: #ff4747; opacity: .8933; stroke-width: 0px;"/>
  </g>
  <g style="clip-path: url(#clippath-2);">
    <path d="m457.02434,1066.28508l-454.50561,1.95173c-6.15161-81.20515,6.43496-162.79962,36.84232-238.34773,27.14101-67.43269,67.9776-132.40169,85.5538-202.14159,20.3719-80.8324,10.1523-160.72223-27.13629-236.92773-10.7811-22.0332-20.25931-47.80786-3.1058-62.93445,14.7261-12.98615,36.69949-5.85535,53.05341,7.46368,37.8192,30.80096,52.9608,79.28229,68.248,125.47687,21.173,63.98035,45.30209,127.12073,78.10889,186.01471,41.76981,74.9841,97.17999,142.27261,130.23462,221.59041,26.06,62.5336,37.2558,130.2607,32.70667,197.85409Z" style="fill: #ff4747; opacity: .8933; stroke-width: 0px;"/>
  </g>
</svg>